PathFileType	4	(X/Y/Z)	pose_F01_0-60.trc
DataRate	CameraRate	NumFrames	NumMarkers	Units	OrigDataRate	OrigDataStartFrame	OrigNumFrames
30	30	6	21	m	30	30	60
Frame#	Time	CHip			RHip			RKnee			RAnkle			RBigToe			RSmallToe			RHeel			LHip			LKnee			LAnkle			LBigToe			LSmallToe			LHeel			Neck			Nose			RShoulder			RElbow			RWrist			LShoulder			LElbow			LWrist			
		X1	Y1	Z1	X2	Y2	Z2	X3	Y3	Z3	X4	Y4	Z4	X5	Y5	Z5	X6	Y6	Z6	X7	Y7	Z7	X8	Y8	Z8	X9	Y9	Z9	X10	Y10	Z10	X11	Y11	Z11	X12	Y12	Z12	X13	Y13	Z13	X14	Y14	Z14	X15	Y15	Z15	X16	Y16	Z16	X17	Y17	Z17	X18	Y18	Z18	X19	Y19	Z19	X20	Y20	Z20	X21	Y21	Z21	
30	1.0	-0.1672725919744338	1.8346278568701566	-0.5872684942236336	-0.18004995870503934	1.8313171683072473	-0.5251981596220545	-0.1936093001404234	1.7011970191442471	-0.4979132065152958	-0.19964086387382854	1.5763944910294396	-0.48573963364072853	-0.23154378800646647	1.541030570453965	-0.46113465438485957	-0.22724808061226257	1.548017803965218	-0.43508014577525556	-0.19857035035163578	1.5681768422518045	-0.4950367244267019	-0.15499527820782993	1.8378974204327645	-0.6554952018950946	-0.14447107812983784	1.7013926000084392	-0.64190150982835	-0.13958564705087856	1.5567046533819846	-0.6275933867217639	-0.17514034598649206	1.5189382305944328	-0.5943337186560675	-0.31971475990497966	1.4463144181806196	-1.199222093384773	-0.13132338629829937	1.5447035692508142	-0.6212067101599643	-0.15350633786491508	1.9942645205267833	-0.6173151564512368	-0.17911222280800715	2.0624697773469247	-0.6071714649739777	-0.1626044873047194	1.9917976732481442	-0.5319244335738053	-0.17815250115547493	1.9056968629078683	-0.4807535830357645	-0.2248340593621799	1.9024218294750188	-0.45835244017208565	-0.14261413975610168	1.997151787166598	-0.701938917476016	-0.14653583803925863	1.917411251778	-0.7095040721900451	-0.2270065785720799	1.9112366972827899	-0.6696166660362215
31	1.0333333333333334	-0.1787850556462294	1.8314850785450116	-0.5784299236162624	-0.19041062493136432	1.8282331550636628	-0.5133642180747876	-0.19700383414129416	1.6962836190451722	-0.49779075797715705	-0.20164264699260906	1.5737398490006311	-0.48330012820775314	-0.232060807566083	1.5432829287968872	-0.46108828362456783	-0.22808595613915478	1.552010600387777	-0.43477125322922944	-0.19873163393145168	1.5659528261252653	-0.4947025265147813	-0.16613061018408787	1.8335205689248832	-0.6433451568461948	-0.14904006563854558	1.6978857978142317	-0.636694203500105	-0.13993534908609717	1.5556062233078876	-0.6269779229325918	-0.17859071462016785	1.51908783949573	-0.5866163390779628	-0.324432912807683	1.445277454189916	-1.1917180809060937	-0.13157122431506607	1.5435702847295656	-0.6206818617782398	-0.15992820501990967	1.994268781892749	-0.6103221657527063	-0.18525441704143245	2.0634482104549594	-0.6003315433803342	-0.16666692192502897	1.991669607859626	-0.5273443235567614	-0.18600701537299993	1.9071340379920794	-0.4716567543473472	-0.2248340593621799	1.9024218294750188	-0.45835244017208565	-0.1491924652312341	1.998145926333871	-0.6948826349720293	-0.1583584970853156	1.916180232015165	-0.7006587959038547	-0.2270065785720799	1.9112366972827899	-0.6696166660362215
32	1.0666666666666667	-0.18620573919105377	1.8336625556573736	-0.5663201664488612	-0.19555875273598808	1.8303765045590998	-0.5034848766580766	-0.19691885595453315	1.697413181231046	-0.49812282007895126	-0.20186722202153629	1.5747036126696459	-0.48297199034800375	-0.2325534272427182	1.5411924885758719	-0.45558934106354027	-0.2276309179811997	1.5493881623502421	-0.4349385831633732	-0.19978057333717017	1.5659711810643975	-0.49787786010966456	-0.17658714723097166	1.8354138838902605	-0.6319563098599864	-0.1635786447938393	1.6985578724198072	-0.6213635858153247	-0.1432078854657083	1.5577107323507198	-0.6245191724580194	-0.18096445710655526	1.5179750124550864	-0.5885425939480585	-0.1704046122509403	1.5226274103400885	-0.6251928977422871	-0.1306335739538094	1.543083839673123	-0.6223429593599504	-0.16844972507679182	1.9939173064440245	-0.6010121707676908	-0.1917394990265141	2.060985065127298	-0.5937480768304075	-0.1788892446464052	1.9912993018742158	-0.5135489897061204	-0.19590949171992172	1.9099459209810206	-0.4520650529917703	-0.2248340593621799	1.9024218294750188	-0.45835244017208565	-0.15885726628189767	1.9969637778214009	-0.6886562123129585	-0.17026949123186666	1.9178249761697386	-0.6924130867166536	-0.2270065785720799	1.9112366972827899	-0.6696166660362215
33	1.1	-0.1948005696902703	1.834696310881042	-0.5573100850930033	-0.20687430215065503	1.832996107476325	-0.49582790823306583	-0.20100766559939331	1.697236111898714	-0.493674873332795	-0.20160555465636862	1.5730679120030102	-0.4832233022295125	-0.23393583540323992	1.5423320846935231	-0.4588220134579514	-0.22777331395286757	1.5499383483000437	-0.4349717565987709	-0.1988155715242856	1.5662446833805284	-0.49474262751659387	-0.18275169878804307	1.8366449001114349	-0.6219309999923941	-0.18304385516744995	1.700147345943579	-0.6008417810243128	-0.1474454121897412	1.5589051168128962	-0.6205439548323337	-0.18473741707881053	1.523540504367893	-0.5856775856628308	-0.173092569797583	1.526605472867652	-0.6193280436298869	-0.13510495764986472	1.5479327673538996	-0.6228392370213607	-0.17696571505278497	1.9926238005395425	-0.5919647408509716	-0.197903763193324	2.0632182006796196	-0.5874799239865847	-0.1890767728869593	1.9898733669058504	-0.5024285234727921	-0.20378270525991085	1.9110752181208206	-0.43438598898783404	-0.2248340593621799	1.9024218294750188	-0.45835244017208565	-0.16258192596502996	1.9955634181666149	-0.6810718039668762	-0.16991919663596478	1.9186081821952283	-0.7100080058219258	-0.2270065785720799	1.9112366972827899	-0.6696166660362215
34	1.1333333333333333	-0.1987562379623159	1.8358647448306826	-0.5530356799916358	-0.20674320271310803	1.8330074549800999	-0.4957562833971969	-0.20523163043551484	1.6982451000759469	-0.48909089452034604	-0.20378967210782895	1.5744816799556913	-0.48077472510729913	-0.234933159429258	1.5424932137856424	-0.4534474554456282	-0.2298377934337176	1.5508160282229575	-0.43254450908196507	-0.20095757594847632	1.5672299767790485	-0.49222610077358786	-0.18757652392300717	1.8389873702214794	-0.6207771356843365	-0.19984363931007532	1.702080716316025	-0.5834163690075443	-0.15894393691355946	1.5672228296729995	-0.6102452594455936	-0.19227194642089618	1.528804702036111	-0.5794964455382037	-0.18372740363327236	1.534370004161248	-0.6143505115307569	-0.14774748122869372	1.5576763108208544	-0.6076588399181251	-0.18114448062337024	1.992511214403858	-0.5875048822874145	-0.20219239212305845	2.0606751384098745	-0.5825494843897899	-0.19403723167843737	1.9897756791233945	-0.5010162335636807	-0.1973110045436247	1.9119329862825036	-0.4383259536795033	-0.2248340593621799	1.9024218294750188	-0.45835244017208565	-0.16773165551341992	1.995519459233649	-0.6794716174323536	-1.4098788983200912	1.843698294898209	0.5761283167910601	-0.2270065785720799	1.9112366972827899	-0.6696166660362215
35	1.1666666666666667	-0.19860532182122018	1.8332190046250803	-0.5526701584571306	-0.2084480116369874	1.8302872223295765	-0.4931678002841566	-0.2077524653603222	1.6994443725661583	-0.48211675094703804	-0.20157037896467198	1.5756920092263795	-0.48343086789904144	-0.23477797084854374	1.5417427414931997	-0.4534357786484218	-0.22758810572686633	1.5492115038320469	-0.434897183256925	-0.19846139345470187	1.5644826080603442	-0.49457717093556064	-0.189560919395038	1.8336293023985832	-0.6179839130772966	-0.21144036708826336	1.6995791067215753	-0.5794235016933914	-0.1792412170700814	1.5713293429321256	-0.5985871241054308	-0.20951440109453284	1.536669115946594	-0.5637449393691497	-0.20324392345999523	1.5415836357314707	-0.5962048597542425	-0.165045853962726	1.5615105318962872	-0.5953693391792345	-0.18541104247351578	1.991179988434683	-0.5829466744642853	-0.20634093219438257	2.0592623596274233	-0.5776221188459545	-0.19731439803066303	1.9883338944927402	-0.49331473871279313	-0.19672072870177287	1.910925233822867	-0.42914062422413635	-0.2248340593621799	1.9024218294750188	-0.45835244017208565	-0.1699568782022651	1.9954169862764555	-0.6771030343853206	-1.4162580347884022	1.84902839830165	0.5828733865695083	-0.2270065785720799	1.9112366972827899	-0.6696166660362215
